<svg id="visual" viewBox="0 0 2000 200" width="2000" height="200" xmlns="http://www.w3.org/2000/svg" xmlns:xlink="http://www.w3.org/1999/xlink" version="1.1"><path d="M0 82L30.3 85.3C60.7 88.7 121.3 95.3 182 99C242.7 102.7 303.3 103.3 363.8 102.7C424.3 102 484.7 100 545.2 86C605.7 72 666.3 46 727 34.5C787.7 23 848.3 26 909 34C969.7 42 1030.3 55 1091 61.5C1151.7 68 1212.3 68 1273 66.3C1333.7 64.7 1394.3 61.3 1454.8 63.5C1515.3 65.7 1575.7 73.3 1636.2 82C1696.7 90.7 1757.3 100.3 1818 104.5C1878.7 108.7 1939.3 107.3 1969.7 106.7L2000 106L2000 201L1969.7 201C1939.3 201 1878.7 201 1818 201C1757.3 201 1696.7 201 1636.2 201C1575.7 201 1515.3 201 1454.8 201C1394.3 201 1333.7 201 1273 201C1212.3 201 1151.7 201 1091 201C1030.3 201 969.7 201 909 201C848.3 201 787.7 201 727 201C666.3 201 605.7 201 545.2 201C484.7 201 424.3 201 363.8 201C303.3 201 242.7 201 182 201C121.3 201 60.7 201 30.3 201L0 201Z" fill="#4d7c6e"></path><path d="M0 115L30.3 117.2C60.7 119.3 121.3 123.7 182 122.7C242.7 121.7 303.3 115.3 363.8 105.8C424.3 96.3 484.7 83.7 545.2 80.5C605.7 77.3 666.3 83.7 727 83.2C787.7 82.7 848.3 75.3 909 78.3C969.7 81.3 1030.3 94.7 1091 104.5C1151.7 114.3 1212.3 120.7 1273 120.3C1333.7 120 1394.3 113 1454.8 112.2C1515.3 111.3 1575.7 116.7 1636.2 118.2C1696.7 119.7 1757.3 117.3 1818 106.3C1878.7 95.3 1939.3 75.7 1969.7 65.8L2000 56L2000 201L1969.7 201C1939.3 201 1878.7 201 1818 201C1757.3 201 1696.7 201 1636.2 201C1575.7 201 1515.3 201 1454.8 201C1394.3 201 1333.7 201 1273 201C1212.3 201 1151.7 201 1091 201C1030.3 201 969.7 201 909 201C848.3 201 787.7 201 727 201C666.3 201 605.7 201 545.2 201C484.7 201 424.3 201 363.8 201C303.3 201 242.7 201 182 201C121.3 201 60.7 201 30.3 201L0 201Z" fill="#819170"></path><path d="M0 100L30.3 106.7C60.7 113.3 121.3 126.7 182 125.2C242.7 123.7 303.3 107.3 363.8 108.7C424.3 110 484.7 129 545.2 130.3C605.7 131.7 666.3 115.3 727 108.3C787.7 101.3 848.3 103.7 909 103.5C969.7 103.3 1030.3 100.7 1091 99.8C1151.7 99 1212.3 100 1273 101C1333.7 102 1394.3 103 1454.8 107.8C1515.3 112.7 1575.7 121.3 1636.2 118C1696.7 114.7 1757.3 99.3 1818 95.8C1878.7 92.3 1939.3 100.7 1969.7 104.8L2000 109L2000 201L1969.7 201C1939.3 201 1878.7 201 1818 201C1757.3 201 1696.7 201 1636.2 201C1575.7 201 1515.3 201 1454.8 201C1394.3 201 1333.7 201 1273 201C1212.3 201 1151.7 201 1091 201C1030.3 201 969.7 201 909 201C848.3 201 787.7 201 727 201C666.3 201 605.7 201 545.2 201C484.7 201 424.3 201 363.8 201C303.3 201 242.7 201 182 201C121.3 201 60.7 201 30.3 201L0 201Z" fill="#b7a383"></path><path d="M0 142L30.3 137C60.7 132 121.3 122 182 122.7C242.7 123.3 303.3 134.7 363.8 136.8C424.3 139 484.7 132 545.2 135.8C605.7 139.7 666.3 154.3 727 157.2C787.7 160 848.3 151 909 148.8C969.7 146.7 1030.3 151.3 1091 153.5C1151.7 155.7 1212.3 155.3 1273 149C1333.7 142.7 1394.3 130.3 1454.8 125.3C1515.3 120.3 1575.7 122.7 1636.2 129.8C1696.7 137 1757.3 149 1818 152.7C1878.7 156.3 1939.3 151.7 1969.7 149.3L2000 147L2000 201L1969.7 201C1939.3 201 1878.7 201 1818 201C1757.3 201 1696.7 201 1636.2 201C1575.7 201 1515.3 201 1454.8 201C1394.3 201 1333.7 201 1273 201C1212.3 201 1151.7 201 1091 201C1030.3 201 969.7 201 909 201C848.3 201 787.7 201 727 201C666.3 201 605.7 201 545.2 201C484.7 201 424.3 201 363.8 201C303.3 201 242.7 201 182 201C121.3 201 60.7 201 30.3 201L0 201Z" fill="#e4b5aa"></path><path d="M0 174L30.3 170.2C60.7 166.3 121.3 158.7 182 155.2C242.7 151.7 303.3 152.3 363.8 156C424.3 159.7 484.7 166.3 545.2 170.7C605.7 175 666.3 177 727 178.3C787.7 179.7 848.3 180.3 909 174.5C969.7 168.7 1030.3 156.3 1091 151C1151.7 145.7 1212.3 147.3 1273 153.3C1333.7 159.3 1394.3 169.7 1454.8 170.3C1515.3 171 1575.7 162 1636.2 160.2C1696.7 158.3 1757.3 163.7 1818 166.3C1878.7 169 1939.3 169 1969.7 169L2000 169L2000 201L1969.7 201C1939.3 201 1878.7 201 1818 201C1757.3 201 1696.7 201 1636.2 201C1575.7 201 1515.3 201 1454.8 201C1394.3 201 1333.7 201 1273 201C1212.3 201 1151.7 201 1091 201C1030.3 201 969.7 201 909 201C848.3 201 787.7 201 727 201C666.3 201 605.7 201 545.2 201C484.7 201 424.3 201 363.8 201C303.3 201 242.7 201 182 201C121.3 201 60.7 201 30.3 201L0 201Z" fill="#fdcedf"></path></svg>