<svg id="visual" viewBox="0 0 1000 100" width="1000" height="100" xmlns="http://www.w3.org/2000/svg" xmlns:xlink="http://www.w3.org/1999/xlink" version="1.1"><path d="M0 39L143 28L286 34L429 35L571 27L714 29L857 32L1000 27L1000 0L857 0L714 0L571 0L429 0L286 0L143 0L0 0Z" fill="#fdcedf"></path><path d="M0 24L143 31L286 19L429 30L571 27L714 27L857 25L1000 24L1000 0L857 0L714 0L571 0L429 0L286 0L143 0L0 0Z" fill="#ffd8dc"></path><path d="M0 26L143 26L286 22L429 26L571 21L714 17L857 21L1000 17L1000 0L857 0L714 0L571 0L429 0L286 0L143 0L0 0Z" fill="#fee2de"></path><path d="M0 18L143 17L286 16L429 15L571 9L714 9L857 13L1000 11L1000 0L857 0L714 0L571 0L429 0L286 0L143 0L0 0Z" fill="#faede6"></path><path d="M0 9L143 4L286 9L429 8L571 3L714 6L857 9L1000 11L1000 0L857 0L714 0L571 0L429 0L286 0L143 0L0 0Z" fill="#f8f6f4"></path></svg>