<svg id="visual" viewBox="0 0 2000 200" width="2000" height="200" xmlns="http://www.w3.org/2000/svg" xmlns:xlink="http://www.w3.org/1999/xlink" version="1.1"><path d="M0 27L182 33L364 35L545 21L727 15L909 17L1091 27L1273 33L1455 29L1636 39L1818 41L2000 31L2000 0L1818 0L1636 0L1455 0L1273 0L1091 0L909 0L727 0L545 0L364 0L182 0L0 0Z" fill="#fdcedf"></path><path d="M0 71L182 93L364 73L545 71L727 93L909 79L1091 71L1273 91L1455 77L1636 77L1818 93L2000 59L2000 29L1818 39L1636 37L1455 27L1273 31L1091 25L909 15L727 13L545 19L364 33L182 31L0 25Z" fill="#ffd8dc"></path><path d="M0 97L182 107L364 85L545 97L727 125L909 109L1091 101L1273 109L1455 105L1636 91L1818 121L2000 93L2000 57L1818 91L1636 75L1455 75L1273 89L1091 69L909 77L727 91L545 69L364 71L182 91L0 69Z" fill="#fee2de"></path><path d="M0 117L182 153L364 123L545 115L727 177L909 131L1091 151L1273 145L1455 127L1636 125L1818 161L2000 139L2000 91L1818 119L1636 89L1455 103L1273 107L1091 99L909 107L727 123L545 95L364 83L182 105L0 95Z" fill="#faede6"></path><path d="M0 201L182 201L364 201L545 201L727 201L909 201L1091 201L1273 201L1455 201L1636 201L1818 201L2000 201L2000 137L1818 159L1636 123L1455 125L1273 143L1091 149L909 129L727 175L545 113L364 121L182 151L0 115Z" fill="#f8f6f4"></path></svg>